<svg width="188" height="17" viewBox="0 0 188 17" fill="none" xmlns="http://www.w3.org/2000/svg">
<path d="M0.408 17L4.08 0.68H10.368L14.04 17H10.728L10.08 14.048H4.368L3.72 17H0.408ZM6.648 3.416L4.992 11.168H9.456L7.8 3.416H6.648ZM16.2135 17V0.68H21.8055L25.7415 14.12H25.9815V0.68H29.2935V17H23.8455L19.7655 3.56H19.5255V17H16.2135ZM32.8541 17V0.68H38.4461L42.3821 14.12H42.6221V0.68H45.9341V17H40.4861L36.4061 3.56H36.1661V17H32.8541ZM49.4948 17V0.68H60.0547V3.56H52.8068V7.376H58.6148V10.208H52.8068V14.12H60.0547V17H49.4948ZM77.4413 17V10.232H71.3693V17H68.0573V0.68H71.3693V7.352H77.4413V0.68H80.7533V17H77.4413ZM82.9314 17L86.6034 0.68H92.8914L96.5634 17H93.2514L92.6034 14.048H86.8914L86.2434 17H82.9314ZM89.1714 3.416L87.5154 11.168H91.9794L90.3234 3.416H89.1714ZM96.3823 3.608V0.68H108.382V3.608H104.062V17H100.75V3.608H96.3823ZM119.863 17V10.232H113.791V17H110.479V0.68H113.791V7.352H119.863V0.68H123.175V17H119.863ZM125.353 17L129.025 0.68H135.313L138.985 17H135.673L135.025 14.048H129.313L128.665 17H125.353ZM131.593 3.416L129.937 11.168H134.401L132.745 3.416H131.593ZM139.394 0.68H142.874L144.89 14.168H145.25L148.178 0.68H152.018L154.946 14.168H155.306L157.322 0.68H160.802L157.682 17H152.666L150.098 4.592L147.53 17H142.514L139.394 0.68ZM161.213 17L164.885 0.68H171.173L174.845 17H171.533L170.885 14.048H165.173L164.525 17H161.213ZM167.453 3.416L165.797 11.168H170.261L168.605 3.416H167.453ZM182.329 17H179.017V10.4L173.977 0.68H177.649L180.649 7.184L183.649 0.68H187.321L182.329 10.4V17Z" fill="#27283D"/>
</svg>
